<?xml version="1.0" encoding="utf-8"?>
<svg viewBox="32.801 29.131 68.868 65.497" xmlns="http://www.w3.org/2000/svg" xmlns:bx="https://boxy-svg.com">
  <path d="M 259 194.795 L 270.917 214.597 L 293.433 219.812 L 278.282 237.265 L 280.281 260.29 L 259 251.275 L 237.719 260.29 L 239.718 237.265 L 224.567 219.812 L 247.083 214.597 Z" style="fill-rule: nonzero; stroke-miterlimit: 2; stroke: rgb(24, 19, 19); paint-order: fill; fill: rgb(207, 158, 51);" transform="matrix(1, -0.000026, 0.000026, 1, -191.771545, -165.656845)" bx:shape="star 259 231 36.205 36.205 0.56 5 1@2d625dfc"/>
  <path d="M 56.748 37.709 L 69.711 59.28 L 56.748 59.28 L 56.748 37.709 Z" style="fill: rgb(255, 255, 255);" transform="matrix(1, -0.000016, 0.000016, 1, 10.487458, -7.602179)" bx:shape="triangle 56.748 37.709 12.963 21.571 0 0 1@afb11637"/>
  <rect x="67.235" y="50.474" width="13.114" height="34.591" style="fill: rgb(255, 255, 255);"/>
  <rect x="79.348" y="55.375" width="5.879" height="22.694" style="fill: rgb(255, 255, 255);"/>
  <path d="M 41.043 8.565 L 50.6 23.618 L 31.486 23.618 L 41.043 8.565 Z" style="fill: rgb(255, 255, 255);" transform="matrix(0.919832, 0.392312, -0.48583, 0.879946, 52.885101, 53.255066)" bx:shape="triangle 31.486 8.565 19.114 15.053 0.5 0 1@749387e6" bx:origin="0.5 0.694"/>
  <rect x="72.643" y="64.605" width="6.138" height="11.457" style="fill: rgb(255, 255, 255);" transform="matrix(0.390731, -0.920505, 0.920505, 0.390731, -20.608021, 126.695969)"/>
  <rect x="102.367" y="64.605" width="8.649" height="11.457" style="fill: rgb(255, 255, 255);" transform="matrix(0.996195, -0.087156, 0.087156, 0.996195, -30.236597, 16.645103)"/>
  <path d="M 52.601 11.555 L 64.849 31.863 L 40.352 31.863 L 52.601 11.555 Z" style="fill: rgb(255, 255, 255);" transform="matrix(0.65567, -0.755047, 0.707418, 0.710519, 35.700348, 80.762062)" bx:shape="triangle 40.352 11.555 24.497 20.308 0.5 0 1@8f2a2614"/>
</svg>