<?xml version="1.0" encoding="utf-8"?>
<svg viewBox="92.352 83.93 100 97.141" xmlns="http://www.w3.org/2000/svg">
  <path d="M 136.74 84.277 C 113.693 86.782 95.155 105.32 92.65 127.865 C 90.145 151.413 103.673 172.456 124.214 180.472 C 125.717 180.973 127.22 179.971 127.22 177.967 L 127.22 169.951 C 127.22 169.951 125.216 170.452 122.711 170.452 C 115.697 170.452 112.691 164.44 112.19 160.932 C 111.689 158.928 110.687 157.425 109.184 155.922 C 107.681 155.421 107.18 155.421 107.18 154.92 C 107.18 153.918 108.683 153.918 109.184 153.918 C 112.19 153.918 114.695 157.425 115.697 158.928 C 118.202 162.936 121.208 163.939 122.711 163.939 C 124.715 163.939 126.218 163.438 127.22 162.936 C 127.721 159.429 129.224 155.922 132.231 153.918 C 120.707 151.413 112.19 144.9 112.19 133.878 C 112.19 128.366 114.695 122.855 118.202 118.847 C 117.701 117.845 117.2 115.34 117.2 111.833 C 117.2 109.829 117.2 106.823 118.703 103.817 C 118.703 103.817 125.717 103.817 132.732 110.33 C 135.237 109.328 138.744 108.827 142.251 108.827 C 145.758 108.827 149.265 109.328 152.271 110.33 C 158.784 103.817 166.3 103.817 166.3 103.817 C 167.302 106.823 167.302 109.829 167.302 111.833 C 167.302 115.841 166.801 117.845 166.3 118.847 C 169.807 122.855 172.312 127.865 172.312 133.878 C 172.312 144.9 163.795 151.413 152.271 153.918 C 155.277 156.423 157.281 160.932 157.281 165.442 L 157.281 178.468 C 157.281 179.971 158.784 181.474 160.788 180.973 C 179.326 173.458 192.352 155.421 192.352 134.379 C 192.352 104.318 166.801 80.77 136.74 84.277 Z" style="fill: rgb(207, 157, 51);"/>
</svg>