<?xml version="1.0" encoding="utf-8"?>
<svg viewBox="86.258 101.392 100 100" xmlns="http://www.w3.org/2000/svg">
  <path d="M 174.041 101.392 C 180.784 101.392 186.258 106.867 186.258 113.61 L 186.258 189.175 C 186.258 195.918 180.784 201.392 174.041 201.392 L 98.476 201.392 C 91.733 201.392 86.258 195.918 86.258 189.175 L 86.258 113.61 C 86.258 106.867 91.733 101.392 98.476 101.392 L 174.041 101.392 Z M 117.598 184.064 L 117.598 139.979 L 102.942 139.979 L 102.942 184.064 L 117.598 184.064 Z M 170.438 184.064 L 170.438 158.783 C 170.438 145.241 163.208 138.942 153.567 138.942 C 145.793 138.942 142.31 143.217 140.36 146.22 L 140.36 139.979 L 125.708 139.979 C 125.902 144.115 125.708 184.064 125.708 184.064 L 140.36 184.064 L 140.36 159.444 C 140.36 158.126 140.455 156.808 140.843 155.866 C 141.901 153.235 144.314 150.508 148.362 150.508 C 153.662 150.508 155.785 154.553 155.785 160.476 L 155.785 184.064 L 170.438 184.064 Z M 110.369 118.721 C 105.355 118.721 102.079 122.018 102.079 126.339 C 102.079 130.569 105.255 133.956 110.175 133.956 L 110.27 133.956 C 115.38 133.956 118.561 130.569 118.561 126.339 C 118.467 122.024 115.389 118.73 110.369 118.721 Z" style="fill: rgb(207, 157, 51);"/>
</svg>